<svg xmlns="http://www.w3.org/2000/svg" version="1.1" xmlns:xlink="http://www.w3.org/1999/xlink" xmlns:svgjs="http://svgjs.dev/svgjs" width="1000" height="234" viewBox="0 0 1000 234"><g transform="matrix(1,0,0,1,0.9907899697527682,0.558962383752089)"><svg viewBox="0 0 396 93" data-background-color="#ffffff" preserveAspectRatio="xMidYMid meet" height="234" width="1000" xmlns="http://www.w3.org/2000/svg" xmlns:xlink="http://www.w3.org/1999/xlink"><g id="tight-bounds" transform="matrix(1,0,0,1,0.24280186861392394,0.21153619155248293)"><svg viewBox="0 0 395.52 92.57372164764332" height="92.57372164764332" width="395.52"><g><svg viewBox="0 0 535.0015181578362 125.22016996108952" height="92.57372164764332" width="395.52"><g transform="matrix(1,0,0,1,139.48151815783623,32.40743906614787)"><svg viewBox="0 0 395.52 60.40529182879377" height="60.40529182879377" width="395.52"><g id="textblocktransform"><svg viewBox="0 0 395.52 60.40529182879377" height="60.40529182879377" width="395.52" id="textblock"><g><svg viewBox="0 0 395.52 60.40529182879377" height="60.40529182879377" width="395.52"><g transform="matrix(1,0,0,1,0,0)"><svg width="395.52" viewBox="4.55 -37.4 308.38 47.1" height="60.40529182879377" data-palette-color="#ffffff"><path d="M18.7-26.75Q23.75-26.75 26.73-23.83 29.7-20.9 29.7-15.25L29.7-15.25 29.7 0 24.9 0 24.9-14.7Q24.9-18.55 23.05-20.5 21.2-22.45 17.75-22.45L17.75-22.45Q13.85-22.45 11.6-20.18 9.35-17.9 9.35-13.65L9.35-13.65 9.35 0 4.55 0 4.55-37.1 9.35-37.1 9.35-22.75Q10.85-24.65 13.28-25.7 15.7-26.75 18.7-26.75L18.7-26.75ZM62.7-13.1Q62.7-12.55 62.6-11.65L62.6-11.65 41.1-11.65Q41.55-8.15 44.17-6.03 46.8-3.9 50.7-3.9L50.7-3.9Q55.45-3.9 58.35-7.1L58.35-7.1 61-4Q59.2-1.9 56.52-0.8 53.85 0.3 50.55 0.3L50.55 0.3Q46.35 0.3 43.1-1.43 39.85-3.15 38.07-6.25 36.3-9.35 36.3-13.25L36.3-13.25Q36.3-17.1 38.02-20.2 39.75-23.3 42.77-25.03 45.8-26.75 49.6-26.75L49.6-26.75Q53.4-26.75 56.37-25.03 59.35-23.3 61.02-20.2 62.7-17.1 62.7-13.1L62.7-13.1ZM49.6-22.7Q46.15-22.7 43.82-20.6 41.5-18.5 41.1-15.1L41.1-15.1 58.1-15.1Q57.7-18.45 55.37-20.58 53.05-22.7 49.6-22.7L49.6-22.7ZM69.35 0L69.35-37.1 74.15-37.1 74.15 0 69.35 0ZM97.34-26.75Q101.19-26.75 104.24-25.05 107.29-23.35 109.02-20.3 110.74-17.25 110.74-13.25L110.74-13.25Q110.74-9.25 109.02-6.18 107.29-3.1 104.24-1.4 101.19 0.3 97.34 0.3L97.34 0.3Q94.49 0.3 92.12-0.8 89.74-1.9 88.09-4L88.09-4 88.09 9.7 83.29 9.7 83.29-26.5 87.89-26.5 87.89-22.3Q89.49-24.5 91.94-25.63 94.39-26.75 97.34-26.75L97.34-26.75ZM96.94-3.9Q99.49-3.9 101.52-5.08 103.54-6.25 104.72-8.38 105.89-10.5 105.89-13.25L105.89-13.25Q105.89-16 104.72-18.13 103.54-20.25 101.52-21.4 99.49-22.55 96.94-22.55L96.94-22.55Q94.44-22.55 92.42-21.38 90.39-20.2 89.22-18.1 88.04-16 88.04-13.25L88.04-13.25Q88.04-10.5 89.19-8.38 90.34-6.25 92.39-5.08 94.44-3.9 96.94-3.9L96.94-3.9ZM150.54-26.75Q155.54-26.75 158.47-23.85 161.39-20.95 161.39-15.25L161.39-15.25 161.39 0 156.59 0 156.59-14.7Q156.59-18.55 154.82-20.5 153.04-22.45 149.74-22.45L149.74-22.45Q146.09-22.45 143.94-20.18 141.79-17.9 141.79-13.65L141.79-13.65 141.79 0 136.99 0 136.99-14.7Q136.99-18.55 135.22-20.5 133.44-22.45 130.14-22.45L130.14-22.45Q126.49-22.45 124.34-20.18 122.19-17.9 122.19-13.65L122.19-13.65 122.19 0 117.39 0 117.39-26.5 121.99-26.5 121.99-22.55Q123.44-24.6 125.79-25.68 128.14-26.75 131.14-26.75L131.14-26.75Q134.24-26.75 136.64-25.5 139.04-24.25 140.34-21.85L140.34-21.85Q141.84-24.15 144.52-25.45 147.19-26.75 150.54-26.75L150.54-26.75ZM194.34-13.1Q194.34-12.55 194.24-11.65L194.24-11.65 172.74-11.65Q173.19-8.15 175.81-6.03 178.44-3.9 182.34-3.9L182.34-3.9Q187.09-3.9 189.99-7.1L189.99-7.1 192.64-4Q190.84-1.9 188.16-0.8 185.49 0.3 182.19 0.3L182.19 0.3Q177.99 0.3 174.74-1.43 171.49-3.15 169.71-6.25 167.94-9.35 167.94-13.25L167.94-13.25Q167.94-17.1 169.66-20.2 171.39-23.3 174.41-25.03 177.44-26.75 181.24-26.75L181.24-26.75Q185.04-26.75 188.01-25.03 190.99-23.3 192.66-20.2 194.34-17.1 194.34-13.1L194.34-13.1ZM181.24-22.7Q177.79-22.7 175.46-20.6 173.14-18.5 172.74-15.1L172.74-15.1 189.74-15.1Q189.34-18.45 187.01-20.58 184.69-22.7 181.24-22.7L181.24-22.7ZM210.69-33.45Q206.39-33.45 206.39-28.8L206.39-28.8 206.39-26.5 214.09-26.5 214.09-22.55 206.49-22.55 206.49 0 201.69 0 201.69-22.55 197.19-22.55 197.19-26.5 201.69-26.5 201.69-28.85Q201.69-32.8 203.99-35.1 206.29-37.4 210.44-37.4L210.44-37.4Q212.04-37.4 213.44-37 214.84-36.6 215.84-35.85L215.84-35.85 214.39-32.2Q212.74-33.45 210.69-33.45L210.69-33.45ZM229.58 0.3Q225.63 0.3 222.48-1.45 219.33-3.2 217.56-6.28 215.78-9.35 215.78-13.25L215.78-13.25Q215.78-17.15 217.56-20.23 219.33-23.3 222.48-25.03 225.63-26.75 229.58-26.75L229.58-26.75Q233.53-26.75 236.66-25.03 239.78-23.3 241.56-20.23 243.33-17.15 243.33-13.25L243.33-13.25Q243.33-9.35 241.56-6.28 239.78-3.2 236.66-1.45 233.53 0.3 229.58 0.3L229.58 0.3ZM229.58-3.9Q232.13-3.9 234.16-5.08 236.18-6.25 237.33-8.38 238.48-10.5 238.48-13.25L238.48-13.25Q238.48-16 237.33-18.13 236.18-20.25 234.16-21.4 232.13-22.55 229.58-22.55L229.58-22.55Q227.03-22.55 225.01-21.4 222.98-20.25 221.81-18.13 220.63-16 220.63-13.25L220.63-13.25Q220.63-10.5 221.81-8.38 222.98-6.25 225.01-5.08 227.03-3.9 229.58-3.9L229.58-3.9ZM249.98 0L249.98-37.1 254.78-37.1 254.78 0 249.98 0ZM284.18 0L274.23-12.35 268.73-7.25 268.73 0 263.93 0 263.93-37.1 268.73-37.1 268.73-13.3 283.18-26.5 288.98-26.5 277.83-15.55 290.08 0 284.18 0ZM301.48 0.3Q298.23 0.3 295.23-0.58 292.23-1.45 290.53-2.8L290.53-2.8 292.53-6.6Q294.28-5.35 296.78-4.6 299.28-3.85 301.83-3.85L301.83-3.85Q308.13-3.85 308.13-7.45L308.13-7.45Q308.13-8.65 307.28-9.35 306.43-10.05 305.15-10.38 303.88-10.7 301.53-11.1L301.53-11.1Q298.33-11.6 296.3-12.25 294.28-12.9 292.83-14.45 291.38-16 291.38-18.8L291.38-18.8Q291.38-22.4 294.38-24.58 297.38-26.75 302.43-26.75L302.43-26.75Q305.08-26.75 307.73-26.1 310.38-25.45 312.08-24.35L312.08-24.35 310.03-20.55Q306.78-22.65 302.38-22.65L302.38-22.65Q299.33-22.65 297.73-21.65 296.13-20.65 296.13-19L296.13-19Q296.13-17.7 297.03-16.95 297.93-16.2 299.25-15.85 300.58-15.5 302.98-15.05L302.98-15.05Q306.18-14.5 308.15-13.88 310.13-13.25 311.53-11.75 312.93-10.25 312.93-7.55L312.93-7.55Q312.93-3.95 309.85-1.83 306.78 0.3 301.48 0.3L301.48 0.3Z" opacity="1" transform="matrix(1,0,0,1,0,0)" fill="#ffffff" class="wordmark-text-0" data-fill-palette-color="primary" id="text-0"></path></svg></g></svg></g></svg></g></svg></g><g><svg viewBox="0 0 125.22127848406193 125.22016996108952" height="125.22016996108952" width="125.22127848406193"><g><svg xmlns="http://www.w3.org/2000/svg" viewBox="2 2.000435584826344 60.000095566788524 59.99956441517366" x="0" y="0" height="125.22016996108952" width="125.22127848406193" class="icon-icon-0" data-fill-palette-color="accent" id="icon-0"><g fill="#66fb95" data-fill-palette-color="accent"><circle cx="28" cy="23" r="1.0" fill="#66fb95" data-fill-palette-color="accent"></circle><circle cx="36" cy="23" r="1.0" fill="#66fb95" data-fill-palette-color="accent"></circle><path d="M29.553 31.9a5.5 5.5 0 0 0 4.894 0 1 1 0 1 0-0.894-1.79 3.484 3.484 0 0 1-3.106 0 1 1 0 0 0-0.894 1.79Z" fill="#66fb95" data-fill-palette-color="accent"></path><path d="M17 49a3 3 0 1 0-3 3A3 3 0 0 0 17 49Zm-3 1a1 1 0 1 1 1-1A1 1 0 0 1 14 50Z" fill="#66fb95" data-fill-palette-color="accent"></path><path d="M61 47H52a3.959 3.959 0 0 0-2 0.556V41a7.042 7.042 0 0 0-5.379-6.8A3.823 3.823 0 0 0 41.173 32h-0.708A8.929 8.929 0 0 0 41 29V27h0.5a3.5 3.5 0 0 0 0-7H41V15a5.006 5.006 0 0 0-5-5H21a1 1 0 0 0-0.986 1.165l0.721 4.328A2.983 2.983 0 0 0 23 17.91V20h-0.5a3.5 3.5 0 0 0 0 7H23v2a8.929 8.929 0 0 0 0.535 3H22.83a3.837 3.837 0 0 0-3.46 2.2A7.048 7.048 0 0 0 14.08 40H3a1 1 0 0 0-1 1V57a0.982 0.982 0 0 0 0.1 0.416A1.985 1.985 0 0 0 2 58v2a2 2 0 0 0 2 2H60a2 2 0 0 0 2-2V58a1.983 1.983 0 0 0-0.513-1.324A2.982 2.982 0 0 0 62 55V48A1 1 0 0 0 61 47ZM41 22h0.5a1.5 1.5 0 0 1 0 3H41ZM23 25h-0.5a1.5 1.5 0 0 1 0-3H23ZM54 54V49h6v6a1 1 0 0 1-1 1H55a1 1 0 0 1-1-1Zm-2-5v4a2 2 0 0 1 0-4Zm-3.015 6.987c0.1-0.127 0.185-0.257 0.269-0.393s0.148-0.261 0.215-0.4 0.137-0.283 0.193-0.432 0.092-0.278 0.131-0.421l0-0.011A3.968 3.968 0 0 0 52 55a2.966 2.966 0 0 0 0.184 1H48.976ZM45 39.173V36.444A5.017 5.017 0 0 1 48 41v3H41a1 1 0 0 0-1 1v5H32a4.991 4.991 0 0 0-4 2H25V43h1a0.987 0.987 0 0 0 0.962-0.81 7.916 7.916 0 0 0 10.076 0A0.987 0.987 0 0 0 38 43h3.173A3.832 3.832 0 0 0 45 39.173ZM44 50H42V46h6v7a3 3 0 0 1-0.049 0.486 2.964 2.964 0 0 1-0.086 0.355c-0.02 0.068-0.038 0.136-0.062 0.2a3.093 3.093 0 0 1-0.134 0.3c-0.034 0.068-0.07 0.136-0.109 0.2a3.089 3.089 0 0 1-0.179 0.261c-0.046 0.061-0.095 0.12-0.145 0.177a3.173 3.173 0 0 1-0.222 0.227c-0.056 0.051-0.115 0.1-0.174 0.144a3.122 3.122 0 0 1-0.258 0.186c-0.068 0.043-0.14 0.078-0.211 0.115a2.855 2.855 0 0 1-0.273 0.132 2.769 2.769 0 0 1-0.285 0.089c-0.081 0.023-0.16 0.052-0.244 0.069A3.049 3.049 0 0 1 45 56H29V55a3.009 3.009 0 0 1 3-3H44a1 1 0 0 0 0-2ZM27.111 54A5 5 0 0 0 27 55v1H25V54ZM28.48 18h7.04L39 22.35v3.236L36.956 27.63a7.757 7.757 0 0 0-4.52-1.608l-0.219-0.219 0.678-1.356a1 1 0 0 0-1.79-0.894l-1 2a0.992 0.992 0 0 0-0.069 0.678 7.741 7.741 0 0 0-2.992 1.4L25 25.586V22.35ZM25 19.149V18h0.919ZM38.081 18H39v1.149ZM26.293 29.707a1 1 0 0 0 1.414 0A5.789 5.789 0 0 1 31.829 28h0.342a5.789 5.789 0 0 1 4.122 1.707 1 1 0 0 0 1.414 0L39 28.414V29a6.9 6.9 0 0 1-0.7 3H38a1 1 0 0 0-1 1v0.878c-0.122 0.126-0.24 0.256-0.371 0.371a7 7 0 0 1-9.258 0c-0.131-0.116-0.249-0.246-0.371-0.372V33a1 1 0 0 0-1-1h-0.3a6.9 6.9 0 0 1-0.7-3v-0.586ZM37 36.47v2.823a5.971 5.971 0 0 1-10 0V36.47a8.935 8.935 0 0 0 10 0ZM41.173 34A1.83 1.83 0 0 1 43 35.827v3.346A1.83 1.83 0 0 1 41.173 41H39V34ZM22.708 15.164L22.181 12H36a3 3 0 0 1 3 3v1H23.694A1 1 0 0 1 22.708 15.164ZM21 35.83a1.785 1.785 0 0 1 0.073-0.493A1.83 1.83 0 0 1 22.83 34H25v7a1 1 0 0 0-1-1H21.21a1.79 1.79 0 0 1-0.21-0.83Zm-2 0.614V39.17a3.787 3.787 0 0 0 0.1 0.83H16.111A5.03 5.03 0 0 1 19 36.444ZM4 42H23V56H4ZM4 60V58H60v2Z" fill="#66fb95" data-fill-palette-color="accent"></path><path d="M53 45h2c0-0.562 0.217-0.8 0.707-1.293a3.48 3.48 0 0 0 0-5.414C55.217 37.8 55 37.562 55 37H53a3.563 3.563 0 0 0 1.293 2.707c0.49 0.49 0.707 0.731 0.707 1.293s-0.217 0.8-0.707 1.293A3.563 3.563 0 0 0 53 45Z" fill="#66fb95" data-fill-palette-color="accent"></path><path d="M60 37H58a3.563 3.563 0 0 0 1.293 2.707c0.49 0.49 0.707 0.731 0.707 1.293s-0.217 0.8-0.707 1.293A3.563 3.563 0 0 0 58 45h2c0-0.562 0.217-0.8 0.707-1.293a3.48 3.48 0 0 0 0-5.414C60.217 37.8 60 37.562 60 37Z" fill="#66fb95" data-fill-palette-color="accent"></path><path d="M60.725 2.039l-7 2A1 1 0 0 0 53 5v6H52a3 3 0 1 0 3 3V9.754l5-1.428V11H59a3 3 0 1 0 3 3V3a1 1 0 0 0-1.275-0.961ZM53 14a1 1 0 1 1-1-1h1Zm7 0a1 1 0 1 1-1-1h1Zm0-9V6.246L55 7.674V5.754l5-1.428Z" fill="#66fb95" data-fill-palette-color="accent"></path><path d="M5 30a3 3 0 0 0 3-3V20.721l2.316-0.772a1 1 0 1 0-0.632-1.9l-3 1A1 1 0 0 0 6 20v4H5a3 3 0 0 0 0 6Zm0-4H6v1a1 1 0 1 1-1-1Z" fill="#66fb95" data-fill-palette-color="accent"></path><path d="M51 31a3 3 0 0 0 3-3V21.721l2.316-0.772a1 1 0 1 0-0.632-1.9l-3 1A1 1 0 0 0 52 21v4H51a3 3 0 0 0 0 6Zm0-4h1v1a1 1 0 1 1-1-1Z" fill="#66fb95" data-fill-palette-color="accent"></path></g></svg></g></svg></g></svg></g><defs></defs></svg><rect width="395.52" height="92.57372164764332" fill="none" stroke="none" visibility="hidden"></rect></g></svg></g></svg>