<svg id="Layer_1" data-name="Layer 1" xmlns="http://www.w3.org/2000/svg" viewBox="0 0 10720.76 2816.99"><defs><style>.cls-1{fill:#88c985;}.cls-2{fill:#61be6e;}.cls-3{fill:#30a551;}.cls-4{fill:#129346;}.cls-5{fill:#46a163;}.cls-6{fill:#1b75bc;}.cls-7{fill:#0d5028;}.cls-8{fill:#3ca55c;}.cls-9{fill:#2e6e42;}.cls-10{fill:#fff;}</style></defs><title>HELM ME FOLKS 16</title><path class="cls-1" d="M-11216.87,2640.81-11657,3364.23l41.7,479.34,175.79-122.14,12.61-385.69,154.43-74.56,20.95,141.52,36.52,512.56,34.85,375.66,28.13,291.19h134.36l46.33-122.38v-325l5.91-296.82,21.88-310.89s310.4-198.35,454-417.8l-143.62-586.62Z" transform="translate(12582.74 -2522.64)"/><path class="cls-2" d="M-11025.18,4622.73h33.59l156.94-156.67,20.84-175.14,13.12-163.37,18.67-292.42s10.2-182.13-10-320.34l-7.83-91L-10958,3531.37l-7.84,324-5.49,279.4v325l-46.33,122.38h-32.43v40.62Z" transform="translate(12582.74 -2522.64)"/><polygon class="cls-3" points="1765.96 1793.3 1836.11 1726.07 1907.92 1471.45 1962.2 1148.15 1969.23 739.24 1782.89 901.15 1782.89 1326.21 1765.96 1793.3"/><polygon class="cls-4" points="2093.24 586.61 2121.03 824.35 2093.24 1218.24 2025.29 1437.69 1888.72 1539.54 1907.92 1471.45 1962.2 1148.15 1969.23 739.24 2093.24 586.61"/><polygon class="cls-5" points="1639.22 1004.41 1626.86 925.64 1633.04 827.16 1657.78 754.01 1676.28 658.36 1657.78 586.61 1626.86 534.56 1546.56 469.85 1463.17 410.77 1423.02 323.55 1379.78 205.38 1365.88 118.17 1628.32 65.04 1949.62 0 2093.24 586.61 1639.22 1004.41"/><polygon class="cls-6" points="1782.89 901.15 1657.78 992.14 1729.56 841.58 1782.89 901.15"/><path class="cls-3" d="M-10613.51,3261.88l-186.34,161.92-34.89-39V3261.88l17.95-106.2s21.63-84.41,16.94-98.47-55.57-112.54-62.56-121-62.56-70.34-62.56-70.34V2581.72l291.84-59.08,143.62,586.62Z" transform="translate(12582.74 -2522.64)"/><path class="cls-4" d="M-10613.51,3261.88l-61.31-127.3s35.83-139.27,30.65-147.71-100.14-135-100.14-135-41.7-97.06-41.7-103.39V2604.94l12.59-53.9,140.29-28.4,143.62,586.62Z" transform="translate(12582.74 -2522.64)"/><path class="cls-7" d="M-10739.68,2548v56.27l32.44,90s50.95,92.84,50.95,97.06,18.53,94.25,18.53,94.25l32.43,59.09s25.58,54.86,27.46,66.11,23.5,42.21,32.77,49.24,49.39,23.92,49.39,23.92l-137.42-561.3Z" transform="translate(12582.74 -2522.64)"/><path class="cls-8" d="M-10949.7,3349.81l-4.14,111.47,8.39,53.51s-35.14,44.62-39.77,50.25-57.14,32.36-64.86,32.85-63.32,12.17-71,12.17-58.68-11.26-58.68-11.26l-58.67-13.08-34-324.54-3.09-57.67,7.72-61.9-38.6-32.35-38.61-52.05-108.78-26.92,24.5-40.28,212.45-349.2,13.9,87.22,83.39,205.38,163.7,123.8,30.91,52.05,18.51,71.74Z" transform="translate(12582.74 -2522.64)"/><polygon class="cls-2" points="1600.61 992.14 1627.62 1004.41 1690.18 1010.04 1750.41 966.43 1782.03 927.19 1782.89 901.15 1748.01 862.19 1748.01 739.24 1782.89 534.56 1657.78 343.25 1657.78 59.08 1424.42 106.32 1475.52 450.58 1557.37 780.74 1600.61 992.14"/><ellipse class="cls-9" cx="1471.86" cy="1019.18" rx="93.24" ry="84.93"/><ellipse class="cls-9" cx="1696.89" cy="952.52" rx="79.55" ry="72.47"/><ellipse class="cls-9" cx="1881" cy="864.01" rx="77.11" ry="70.24"/><ellipse class="cls-9" cx="2033.31" cy="725.97" rx="64.57" ry="58.82"/><path class="cls-1" d="M-11849.3,5228.21l454.86-714.54-31.4-508.49-179.2,119.07.86,344.66-174.23,140.77-36.18-403.44L-11827,3940l-16.25-372.43-25.5-324.67-133.4-2.16-48.84,124.36-12.25,318.52-29.62,310.84-7.33,323.53s-312.8,197.77-460.48,419.78l129,601.92Z" transform="translate(12582.74 -2522.64)"/><path class="cls-2" d="M-11993.72,3199.29l-33.35-.53-159.45,157.63-24.76,178.68-16.93,180.15-8.75,260.6s-9.88,214.61-3.85,355l-4.41,90.41,145-103.25,7.33-323.53,39.62-277.08,2.25-352.28,48.84-124.36,32.2.52.94-41.52Z" transform="translate(12582.74 -2522.64)"/><polygon class="cls-3" points="375 986.9 303.79 1054.49 226.59 1313.6 165.21 1643.2 148.75 2061.06 337.52 1898.54 361.15 1467.53 375 986.9"/><polygon class="cls-4" points="22.09 2215.08 0 1971.63 36.72 1569.46 109.27 1346.23 247.23 1244.31 226.59 1313.6 165.21 1643.2 148.75 2061.06 22.09 2215.08"/><polygon class="cls-5" points="482.57 1795.3 493.01 1876.02 484.6 1976.58 458.34 2050.95 437.76 2148.43 454.47 2222.06 483.95 2275.76 562.19 2343.19 643.62 2404.92 681.47 2494.72 721.66 2616.19 733.44 2705.57 471.64 2755.66 151.1 2816.99 22.09 2215.08 482.57 1795.3"/><polygon class="cls-6" points="337.52 1898.54 463.86 1807.54 389.1 1960.29 337.52 1898.54"/><path class="cls-3" d="M-12434,4583.71l188.77-162.52,33.73,40.38-2.84,125.68-20.29,108.27s-23.42,85.93-19.09,100.38,52.56,115.93,59.31,124.67,60.48,72.9,60.48,72.9l-2.54,112.15-3.45,152.42-.59,25.89-291.14,55.71-129-601.92Z" transform="translate(12582.74 -2522.64)"/><path class="cls-4" d="M-12434,4574.9l57.93,131.11s-38.81,141.78-33.86,150.49,96.31,139.64,96.31,139.64,39.15,99.89,39,106.36l-3.32,146.67-13.75,54.88-140,26.78-129-601.91Z" transform="translate(12582.74 -2522.64)"/><path class="cls-7" d="M-12325.25,5306.66l1.3-57.52-30.13-92.55s-48.43-95.71-48.34-100-16.21-96.64-16.21-96.64l-30.83-60.91s-24.13-56.49-25.74-68-22.35-43.51-31.39-50.85-48.49-25.24-48.49-25.24l123.44,575.93Z" transform="translate(12582.74 -2522.64)"/><path class="cls-8" d="M-12145,4671.08l16.71,73.63,29.49,53.69,159.67,129.17,78,211.27,11.78,89.37,219-353.54,25.26-40.77-107.39-29.26-37.13-53.82-37.58-33.69,9.1-63.14-1.73-59-29.51-329.08-54.67-17.5s-50.34-12.32-58-12.45-63.13,10.92-70.81,11.3-60.43,26.86-65.16,32.54-40.66,50.73-40.66,50.73l7.1,54.82-6.69,113.88" transform="translate(12582.74 -2522.64)"/><polygon class="cls-2" points="520.62 1808.46 494.08 1795.48 432.1 1788.73 371.29 1832.34 338.98 1871.94 337.52 1898.54 371.26 1938.93 368.41 2064.61 329.03 2273.26 448.83 2470.82 442.25 2761.29 675.05 2716.74 632.28 2364.03 558.66 2025.24 520.62 1808.46"/><ellipse class="cls-9" cx="-11933.65" cy="4305.53" rx="92.6" ry="86.82" transform="translate(12442.24 -2893.78) rotate(-1.79)"/><ellipse class="cls-9" cx="-12158.64" cy="4370.06" rx="79.01" ry="74.08" transform="translate(12440.12 -2900.79) rotate(-1.79)"/><ellipse class="cls-9" cx="-12343.49" cy="4457.58" rx="76.58" ry="71.8" transform="matrix(1, -0.03, 0.03, 1, 12437.29, -2906.53)"/><ellipse class="cls-9" cx="-12497.93" cy="4596.24" rx="64.13" ry="60.13" transform="translate(12432.88 -2911.29) rotate(-1.79)"/><path class="cls-10" d="M-9902,3827.4q87.7,0,154.48,32.41t104.56,98.48q37.78,66.09,37.78,167.19v395.28H-9734.7v-381q0-99.78-50.61-150.33t-142.33-50.55q-68.81,0-120.09,25.93t-78.92,76.46q-27.66,50.57-27.66,125.71v353.81h-129.53V3559.13h129.53v460.08l-25.64-49.25q35.06-67.38,107.94-105T-9902,3827.4Z" transform="translate(12582.74 -2522.64)"/><path class="cls-10" d="M-9035.8,4528.54q-114.71,0-201.72-45.36t-134.92-124.42q-47.91-79-47.89-181.44t46.55-181.44q46.55-79.05,128.17-123.76t184.17-44.72q103.88,0,183.48,44.06t124.82,123.77q45.18,79.71,45.2,186,0,7.78-.67,18.14t-2,19.44h-608.5v-89.42h541l-52.62,31.11q1.33-66.09-28.34-117.94a212,212,0,0,0-81.63-81q-51.93-29.16-120.75-29.17-67.45,0-120.08,29.17a209.46,209.46,0,0,0-82.31,81.64q-29.67,52.5-29.67,119.88v20.75q0,68.69,33,122.47t92.43,83.59q59.36,29.8,136.28,29.8,63.39,0,115.34-20.74a252.64,252.64,0,0,0,91.08-62.2l71.52,80.34q-48.6,54.45-120.77,83T-9035.8,4528.54Z" transform="translate(12582.74 -2522.64)"/><path class="cls-10" d="M-8517.7,4520.76V3559.13h129.53v961.63Z" transform="translate(12582.74 -2522.64)"/><path class="cls-10" d="M-8130.48,4772.18v-938.3h124.13v185.33l-8.1,159.41,13.5,159.41v434.15Zm379.14-243.64q-89.06,0-162.59-39.53t-117.39-117.28q-43.86-77.77-43.85-194.41t42.5-194.39q42.49-77.76,116-116.64t165.3-38.89q105.24,0,186.19,44.06T-7437,3993.93q47.23,78.42,47.24,183.39t-47.24,184q-47.22,79.07-128.17,123.13T-7751.34,4528.54Zm-10.8-108.87q68.82,0,123.46-29.8t86.34-84.89q31.71-55.08,31.72-127.66,0-73.87-31.72-127.65a222,222,0,0,0-86.34-83.6q-54.66-29.81-123.46-29.81-67.47,0-122.1,29.81a221.89,221.89,0,0,0-86.36,83.6q-31.71,53.79-31.71,127.65,0,72.59,31.71,127.66t86.36,84.89Q-7829.61,4419.67-7762.14,4419.67Z" transform="translate(12582.74 -2522.64)"/><path class="cls-10" d="M-6305,3827.4q86.34,0,152.45,32.41t103.22,98.48q37.1,66.09,37.11,167.19v395.28h-129.53v-381q0-99.78-48.58-150.33t-136.27-50.55q-64.79,0-113.34,25.93t-74.88,76.46q-26.31,50.57-26.31,125.71v353.81h-129.53v-381q0-99.78-47.89-150.33t-136.95-50.55q-63.44,0-112,25.93t-75.55,76.46q-27,50.57-27,125.71v353.81h-129.53V3833.88h124.12v182.74l-20.23-46.66q33.72-67.38,103.89-105t163.25-37.59q102.54,0,176.75,48.61t97.16,147.09l-52.63-20.75q32.37-79,113.33-127T-6305,3827.4Z" transform="translate(12582.74 -2522.64)"/><path class="cls-10" d="M-5444.18,4528.54q-114.7,0-201.72-45.36t-134.92-124.42q-47.91-79-47.89-181.44t46.55-181.44q46.55-79.05,128.17-123.76t184.17-44.72q103.88,0,183.49,44.06t124.81,123.77q45.18,79.71,45.2,186,0,7.78-.67,18.14t-2,19.44h-608.5v-89.42h541l-52.62,31.11q1.34-66.09-28.34-117.94a212,212,0,0,0-81.63-81q-51.93-29.16-120.75-29.17-67.45,0-120.08,29.17a209.46,209.46,0,0,0-82.31,81.64q-29.67,52.5-29.67,119.88v20.75q0,68.69,33.05,122.47t92.42,83.59q59.37,29.8,136.28,29.8,63.39,0,115.34-20.74a252.64,252.64,0,0,0,91.08-62.2l71.52,80.34q-48.59,54.45-120.77,83T-5444.18,4528.54Z" transform="translate(12582.74 -2522.64)"/><path class="cls-10" d="M-5028.62,3936.26V3833.88h456v102.38Zm121.43,584.5V3773q0-101.05,61.39-161.34t174.72-60.27a326.91,326.91,0,0,1,80.28,9.72q38.45,9.73,65.44,30.46l-39.12,94.6a153.6,153.6,0,0,0-45.88-24,171.42,171.42,0,0,0-54-8.44q-56.67,0-86.36,30.47t-29.67,90.06v92l2.7,57v597.45Z" transform="translate(12582.74 -2522.64)"/><path class="cls-10" d="M-4143.52,4528.54q-106.59,0-190.92-45.36t-132.9-125.06q-48.57-79.71-48.57-180.8,0-102.37,48.57-180.79t132.21-123.77q83.66-45.35,191.61-45.36,106.58,0,190.91,44.72t132.22,123.76q47.91,79.07,47.9,181.44t-47.9,181.44q-47.91,79.08-132.22,124.42T-4143.52,4528.54Zm0-108.87q68.79,0,123.44-29.8t85.69-84.89q31-55.08,31-127.66,0-73.87-31-127.65a217.19,217.19,0,0,0-85.69-83.6q-54.66-29.81-123.44-29.81t-122.78,29.81q-54,29.82-86.36,83.6T-4385,4177.32q0,72.59,32.37,127.66t86.36,84.89Q-4212.34,4419.67-4143.52,4419.67Z" transform="translate(12582.74 -2522.64)"/><path class="cls-10" d="M-3582.25,4520.76V3559.13h129.53v961.63Z" transform="translate(12582.74 -2522.64)"/><path class="cls-10" d="M-3195,4520.76V3559.13h129.53v961.63Zm105.23-165.89,2.71-159.41,411.51-361.58h156.52L-2834.78,4132l-70.17,57Zm441.21,165.89-280.64-334.38,83.65-99.78,356.19,434.16Z" transform="translate(12582.74 -2522.64)"/><path class="cls-10" d="M-2171,4528.54q-89.07,0-169.33-23.33t-126.15-57l54-98.5q45.87,29.82,113.33,50.55A465.72,465.72,0,0,0-2161.52,4421q90.38,0,130.19-24.62t39.81-68.69q0-32.38-24.29-50.53t-64.08-27.22q-39.8-9.07-88.38-16.2t-97.15-18.14q-48.57-11-89-31.11t-64.77-55.74q-24.27-35.62-24.28-95.25,0-62.21,36.42-108.86t103.22-71.92q66.8-25.26,158.55-25.28A649.19,649.19,0,0,1-2003,3843.6q72.2,16.23,118.07,46l-55.33,98.5q-48.57-31.09-101.19-42.76a484.85,484.85,0,0,0-105.23-11.67q-85,0-126.85,26.57t-41.81,68q0,35,24.95,53.79t64.77,29.16a832,832,0,0,0,88.37,17.5q48.57,7.13,97.14,18.14t88.38,30.45q39.79,19.45,64.77,54.44t25,93.3q0,62.22-37.78,107.57t-106.59,70.65Q-2075.18,4528.54-2171,4528.54Z" transform="translate(12582.74 -2522.64)"/></svg>