<svg xmlns="http://www.w3.org/2000/svg" viewBox="0 0 478.38 545.16"><defs><style>.cls-1,.cls-2,.cls-3{fill:none;stroke:#fff;}.cls-1{stroke-miterlimit:10;stroke-width:7.62px;}.cls-2{stroke-width:3.52px;}.cls-3{stroke-width:9.96px;}</style></defs><title>ACC1</title><g id="Layer_2" data-name="Layer 2"><polyline class="cls-1" points="195.88 478.09 3.81 478.09 3.81 111.5 100.02 3.81 338.22 3.81 338.22 168"/><line class="cls-2" x1="102.83" y1="57.83" x2="323.61" y2="57.83"/><line class="cls-2" x1="55.76" y1="131.94" x2="323.61" y2="131.94"/><line class="cls-2" x1="52.05" y1="168.99" x2="195.95" y2="168.99"/><line class="cls-2" x1="52.05" y1="206.04" x2="195.68" y2="206.04"/><line class="cls-2" x1="52.05" y1="280.14" x2="195.78" y2="280.14"/><line class="cls-2" x1="52.05" y1="243.09" x2="195.68" y2="243.09"/><path class="cls-3" d="M491.72,293.61" transform="translate(-156.97 -33.46)"/><line class="cls-2" x1="52.05" y1="317.19" x2="195.73" y2="317.19"/><path class="cls-3" d="M459.73,328.72" transform="translate(-156.97 -33.46)"/><line class="cls-2" x1="52.05" y1="354.25" x2="195.73" y2="354.25"/><path class="cls-3" d="M459.73,392.19" transform="translate(-156.97 -33.46)"/><line class="cls-2" x1="52.05" y1="391.3" x2="195.83" y2="391.3"/><line class="cls-2" x1="52.05" y1="428.35" x2="195.83" y2="428.35"/><line class="cls-2" x1="76.05" y1="94.88" x2="323.61" y2="94.88"/><rect class="cls-3" x="196.11" y="168.31" width="277.29" height="371.87"/><rect class="cls-3" x="218.02" y="195.42" width="233.47" height="78.18"/><rect class="cls-3" x="218.64" y="289.59" width="77.83" height="72.44" rx="17.21"/><rect class="cls-3" x="296.47" y="289.59" width="77.83" height="72.44" rx="17.21"/><rect class="cls-3" x="374.3" y="289.59" width="77.83" height="72.44" rx="17.21"/><rect class="cls-3" x="218.01" y="367.05" width="77.83" height="72.44" rx="17.21"/><rect class="cls-3" x="295.84" y="367.05" width="77.83" height="72.44" rx="17.21"/><rect class="cls-3" x="373.67" y="367.05" width="77.83" height="72.44" rx="17.21"/><rect class="cls-3" x="218.64" y="444.51" width="77.83" height="72.44" rx="17.21"/><rect class="cls-3" x="296.47" y="444.51" width="77.83" height="72.44" rx="17.21"/><rect class="cls-3" x="374.3" y="444.51" width="77.83" height="72.44" rx="17.21"/></g></svg>