<svg id="Layer_1" data-name="Layer 1" xmlns="http://www.w3.org/2000/svg" viewBox="0 0 7403.25 8291.71"><defs><style>.cls-1,.cls-2,.cls-3{fill:none;stroke:#fff;stroke-miterlimit:10;}.cls-1{stroke-width:205px;}.cls-2{stroke-width:333px;}.cls-3{stroke-width:272px;}</style></defs><title>bus</title><line class="cls-1" x1="3603" y1="3591.89" x2="4984.28" y2="3167.39"/><line class="cls-1" x1="3833.1" y1="3893.42" x2="4967.11" y2="3540.42"/><path class="cls-1" d="M3944.33,2152.54s181.35,294.7,138.31,453.05c0,0-270.92,361.3-556.15,430.64L4454,3510.87" transform="translate(645.05 1136.22)"/><rect class="cls-2" x="2104.65" y="-569.56" width="3473.71" height="7037.51" transform="translate(-60.19 2417.47) rotate(-17.37)"/><polyline class="cls-2" points="3397.64 739.14 3166.36 304.07 226.97 2136.48 3791.39 8079.44 4458.9 7780.93"/><circle class="cls-3" cx="4426.77" cy="3894.27" r="1279.4"/><path class="cls-3" d="M2441.37,4206.94c-434.1-137.28-780.89-502.45-872-981.07-71.56-375.68,29.06-744.27,246.49-1024.34" transform="translate(645.05 1136.22)"/></svg>