<svg id="Layer_1" data-name="Layer 1" xmlns="http://www.w3.org/2000/svg" viewBox="0 0 5691.45 5617.26"><defs><style>.cls-1,.cls-3,.cls-4{fill:none;stroke:#fff;stroke-miterlimit:10;}.cls-1{stroke-width:133px;}.cls-2{fill:#fff;}.cls-3{stroke-width:60px;}.cls-4{stroke-width:68px;}</style></defs><title>hotel</title><rect class="cls-1" x="66.5" y="2561.04" width="2009.25" height="2989.72"/><path class="cls-1" d="M5017.71,2951.69" transform="translate(-231.12 -191.37)"/><polyline class="cls-1" points="4786.6 5550.76 2075.74 5550.76 2075.74 66.5 4786.6 66.5 4786.6 2695.94"/><rect class="cls-2" x="2728.93" y="509.37" width="385.63" height="418.06"/><rect class="cls-2" x="3745.02" y="509.37" width="385.63" height="418.06"/><rect class="cls-2" x="2730.77" y="1269.6" width="385.63" height="418.06"/><rect class="cls-2" x="3746.86" y="1269.6" width="385.63" height="418.06"/><rect class="cls-2" x="2729.85" y="2029.82" width="385.63" height="418.06"/><rect class="cls-2" x="3745.94" y="2029.82" width="385.63" height="418.06"/><rect class="cls-2" x="2731.69" y="2790.05" width="385.63" height="418.06"/><rect class="cls-2" x="3747.78" y="2790.05" width="385.63" height="418.06"/><rect class="cls-3" x="721.39" y="4269.85" width="709.17" height="1236.25"/><line class="cls-1" x1="5406.35" y1="5550.76" x2="4301.52" y2="5550.76"/><polyline class="cls-4" points="4301.52 5550.76 4301.52 3714.65 5406.35 3714.65 5406.35 5550.76"/><circle class="cls-4" cx="4866.49" cy="3128.68" r="439.42"/><rect class="cls-4" x="4050.42" y="3756.25" width="150.66" height="1462.65" rx="24.59"/><rect class="cls-4" x="5506.79" y="3756.25" width="150.66" height="1462.65" rx="24.59"/><polyline class="cls-4" points="4718.97 4754.37 4718.97 3913.19 5001.45 3913.19 5001.45 4754.37"/><polyline class="cls-4" points="4717.97 4750.9 4859.78 4996.52 5002.43 4750.69"/><polygon class="cls-4" points="4941.2 3913.19 4770.04 3913.19 4704.46 3721.77 5015.96 3721.77 4941.2 3913.19"/></svg>